<svg id="Layer_1" data-name="Layer 1" xmlns="http://www.w3.org/2000/svg" viewBox="0 0 593.04 114.81"><defs><style>.cls-1{fill:#00a29b;}.cls-2{fill:#ed8a22;}.cls-3{font-size:24.67px;fill:#231f20;font-family:MyriadPro-Semibold, Myriad Pro;font-weight:600;}.cls-4{letter-spacing:-0.01em;}.cls-5{letter-spacing:0em;}.cls-6{letter-spacing:0.02em;}.cls-7{letter-spacing:-0.03em;}.cls-8{letter-spacing:-0.07em;}</style></defs><title>sp-logo</title><path class="cls-1" d="M26.85,77.65c0,4.52.93,7.38,2.72,8.73A15.11,15.11,0,0,0,34.75,88c2,.12,8.71.12,19.88.12,11.69.16,18.78,0,21.11-.26a16.73,16.73,0,0,0,5.43-1c2.06-1,3.14-3,3.4-6.79,0-2.73-.95-4.51-2.46-5.35-1.34-1-4.21-1.48-8.7-1.63-3.39,0-10.61-.25-21.66-.8-11.29-.54-18.64-.83-22.06-1C23,71.26,17.87,70.7,14.3,69.61A16.87,16.87,0,0,1,6,64.42C2.61,60.59.84,54,1,44.91.84,34.54,2.72,27.44,6.7,23.07c3-3.27,7.46-5.32,13.74-6.26C26.57,16,39.11,15.45,58,15.45c13.18,0,22.57.41,28.05,1.23,8.29,1.07,14,3.4,17.17,6.92s4.59,9.31,4.59,17.63v4.24H81a14,14,0,0,0-.68-5.19,4.52,4.52,0,0,0-1.9-2.47c-1.24-.69-3.28-1-6.27-1.09S62.8,36.31,53,36.45c-11.73-.14-18.82.27-21.53.94-2.44.68-3.69,2.75-3.81,6.15,0,3.14,1.22,5.17,3.81,5.72,2.17.7,12,1.23,29.4,1.79,14.58.42,24.38,1,29.42,1.65,4.91.53,8.7,1.62,11.71,3.39a15.73,15.73,0,0,1,7.1,8.19c1.33,3.55,2,8.45,2,15,0,8.59-1.08,14.85-3.43,19.09a15.67,15.67,0,0,1-7.2,6.84,38.52,38.52,0,0,1-12.94,3.12q-9,.84-33.49.83c-13.62,0-23.72-.41-30.21-1.11s-11.46-1.89-14.73-3.81a15.7,15.7,0,0,1-7.09-7.77C.7,93.34,0,88.41,0,82V77.65Z" transform="translate(0 -0.52)"/><path class="cls-2" d="M185.43,45.25V27.86c0-10.52-11.51-10.76-11.51-10.76H132.63c-7.3,0-7.28,7.33-7.28,7.33v54l14.91.16c7.17,0,7.33-7.33,7.33-7.33V57H173.7C186,57,185.43,45.25,185.43,45.25Zm-21.27-8.14v4.33c0,6.4-6.17,6.32-6.17,6.32h-10.4V26.46H158s6.17-.09,6.17,6.31Z" transform="translate(0 -0.52)"/><path class="cls-2" d="M233.65,78.67H250L227.44,17.1H203.91L181.05,78.67h19.22L204,68.14h25.95ZM208.77,54.59,217,31.38l8.2,23.21Z" transform="translate(0 -0.52)"/><path class="cls-2" d="M318.85,71.25,307.25,57c10.39-2.16,10.14-10.84,10.14-10.84V28.86c0-11.72-11.9-11.76-11.9-11.76H264.61c-7.27,0-7.32,7.33-7.32,7.33V78.58s15,.09,18.62.09,3.67-3.76,3.67-3.76V57.11h1.27c2.94,0,3.54,1.5,3.54,1.5L296,73.75c3.63,4.74,7.33,4.83,7.33,4.83h19.2C322.51,74.93,318.85,71.25,318.85,71.25Zm-22.72-29.4c0,5.87-6.15,6-6.15,6h-10.4V26.46H290a5.86,5.86,0,0,1,6.15,5.61Z" transform="translate(0 -0.52)"/><path class="cls-2" d="M332.81,78.58V24.43s.09-7.33,7.32-7.33H355l.09,25.33,20.69-21.67s3.44-3.66,7.32-3.66h14.73l-25.2,25.18,24.51,30.5,4.74,5.89h-21.5s-3.52,0-7.32-5l-13.6-17.76s-1-2.09-4.37-2.09V75s-.09,3.67-3.75,3.67Z" transform="translate(0 -0.52)"/><path class="cls-2" d="M411,78.67V24.43s.1-7.33,7.32-7.33h15V71.34s-.95,7.33-7.32,7.33H411Z" transform="translate(0 -0.52)"/><path class="cls-2" d="M443.41,78.58V24.43s-.07-7.33,7.32-7.33h5.06l35.86,29a6.19,6.19,0,0,0,4.67,1.77l-.06-23.41s.21-7.33,7.33-7.33h7.11V71.34s.17,7.33-7.33,7.33h-7.11L461,50.16s-1-1.08-3.55-1.08l0,22.26s-.62,7.33-7.33,7.33Z" transform="translate(0 -0.52)"/><path class="cls-2" d="M579.11,78.67l-46.77-.09s-12.64,0-12.64-12.65V29.75s.2-12.65,12.64-12.65h46.77s7.33.21,7.33,7.33V28H546.39s-6.16,0-6.16,5.87V63.24s.22,4.86,6.16,4.86h20.5V52.47h-10.1V49.29s.08-7.32,7.45-7.32h22.19V71.34S586.35,78.67,579.11,78.67Z" transform="translate(0 -0.52)"/><text class="cls-3" transform="translate(125.35 108.65) scale(1.02 1)">S<tspan class="cls-4" x="12.8" y="0">M</tspan><tspan x="33.06" y="0">A</tspan><tspan class="cls-5" x="48.75" y="0">R</tspan><tspan x="62.9" y="0">T SERCURI</tspan><tspan class="cls-6" x="171.99" y="0">T</tspan><tspan x="185.33" y="0">Y SO</tspan><tspan class="cls-7" x="234.8" y="0">L</tspan><tspan x="246.14" y="0">UTIONS &amp; </tspan><tspan class="cls-8" x="355" y="0">P</tspan><tspan x="367.04" y="0">ARKING</tspan></text><path class="cls-1" d="M582.19,12.09V3.49h4.35a2.63,2.63,0,0,1,2.21.92,2.44,2.44,0,0,1,.5,1.5,2.4,2.4,0,0,1-.35,1.29,1.85,1.85,0,0,1-1,.77,1.76,1.76,0,0,1,.81.6,3.2,3.2,0,0,1,.29,1.58q0,.88,0,1.23a.52.52,0,0,0,.35.47v.24h-2a5,5,0,0,1-.14-.71,8.83,8.83,0,0,1,0-1,2.46,2.46,0,0,0-.2-1.26,1.48,1.48,0,0,0-1.21-.37H584v3.38ZM584,7.28h2.1A1.68,1.68,0,0,0,587.12,7a1.1,1.1,0,0,0,.33-.9,1.11,1.11,0,0,0-.24-.73,1.26,1.26,0,0,0-1-.39H584Z" transform="translate(0 -0.52)"/><path class="cls-1" d="M585.6,15.39A7.44,7.44,0,1,1,593,8a7.44,7.44,0,0,1-7.44,7.43m0-13.51A6.08,6.08,0,1,0,591.68,8a6.08,6.08,0,0,0-6.08-6.08" transform="translate(0 -0.52)"/></svg>